<svg width="48" height="42" viewBox="0 0 48 42" fill="none" xmlns="http://www.w3.org/2000/svg">
<g clip-path="url(#clip0_3512_24578)">
<path d="M40.8437 9.9584L25.1477 0.907676C24.7977 0.707093 24.4013 0.601562 23.9979 0.601562C23.5944 0.601563 23.198 0.707093 22.848 0.907676L7.15197 9.9584C6.80223 10.1603 6.5117 10.4506 6.30952 10.8002C6.10733 11.1498 6.0006 11.5464 6 11.9503V30.0509C6 30.8684 6.44102 31.6301 7.15197 32.0427L22.848 41.0935C23.1984 41.2951 23.5958 41.4007 24 41.3995C24.4049 41.3995 24.8021 41.292 25.152 41.0935L40.848 32.0427C41.1976 31.8409 41.4881 31.5507 41.6903 31.2013C41.8924 30.8518 41.9993 30.4554 42 30.0517V11.9503C42 11.1336 41.559 10.371 40.848 9.9584H40.8437ZM24.3533 19.8783C24.2452 19.9404 24.1226 19.9731 23.9979 19.9731C23.8731 19.9731 23.7505 19.9404 23.6424 19.8783L8.38304 11.0803L23.6424 2.28574C23.7511 2.22522 23.8734 2.19345 23.9979 2.19345C24.1223 2.19345 24.2446 2.22522 24.3533 2.28574L39.6127 11.082L24.3533 19.8783ZM22.848 21.2503C22.9592 21.3145 23.0784 21.3689 23.2057 21.4136V39.4583L7.94632 30.6664C7.83817 30.6042 7.74822 30.5146 7.68547 30.4068C7.62272 30.2989 7.58935 30.1765 7.58869 30.0517V12.4541L22.848 21.2503Z" fill="black"/>
</g>
<defs>
<clipPath id="clip0_3512_24578">
<rect width="36" height="40.798" fill="white" transform="translate(6 0.601562)"/>
</clipPath>
</defs>
</svg>
