<svg width="32" height="41" viewBox="0 0 32 41" fill="none" xmlns="http://www.w3.org/2000/svg">
<g clip-path="url(#clip0_2311_25284)">
<path d="M31.4686 18.8356C30.5679 23.9706 26.3785 27.852 20.8809 27.852H17.3908C16.6789 27.852 15.9617 28.511 15.848 29.2398L14.3196 38.9411C14.231 39.4936 13.9722 39.6771 13.4126 39.6771H7.79867C7.23101 39.6771 7.0967 39.4873 7.18176 38.9277L7.82643 32.2187L1.08789 31.8704C0.521121 31.8704 0.316082 31.5615 0.396665 30.9956L4.99438 1.84245C5.08302 1.29001 5.42684 1.05273 5.98466 1.05273H17.645C23.2581 1.05273 26.8091 4.83119 27.2434 9.73064C30.5831 11.987 32.1446 14.9891 31.4695 18.8347L31.4686 18.8356Z" fill="#001C64"/>
<path d="M9.53488 21.3563L7.82741 32.2198L6.7476 39.0353C6.72754 39.1667 6.73602 39.3009 6.77245 39.4287C6.80887 39.5565 6.8724 39.675 6.95871 39.7761C7.04502 39.8772 7.15209 39.9585 7.27263 40.0146C7.39318 40.0706 7.52437 40.1 7.65729 40.1008H13.5864C13.8571 40.1005 14.1187 40.0036 14.3243 39.8277C14.53 39.6518 14.6661 39.4083 14.7083 39.1409L16.2689 29.2382C16.3113 28.971 16.4476 28.7277 16.6532 28.552C16.8588 28.3762 17.1203 28.2795 17.3908 28.2792H20.881C23.5405 28.2758 26.1112 27.3224 28.1298 25.5909C30.1484 23.8594 31.4821 21.4637 31.8904 18.8358C32.4948 14.9794 30.5545 11.4687 27.2336 9.73438C27.2261 10.1452 27.1902 10.5551 27.1262 10.961C26.7164 13.5876 25.3822 15.9815 23.3639 17.7117C21.3457 19.4419 18.776 20.3946 16.1176 20.3982H10.6559C10.3856 20.3983 10.1242 20.4948 9.91867 20.6705C9.71318 20.8461 9.57709 21.0893 9.53488 21.3563Z" fill="#0070E0"/>
<path d="M7.82642 32.2194H0.922241C0.789038 32.2188 0.657541 32.1894 0.536709 32.1334C0.415877 32.0773 0.308551 31.9959 0.222045 31.8946C0.135539 31.7933 0.0718862 31.6745 0.0354244 31.5464C-0.00103749 31.4183 -0.00945127 31.2838 0.0107561 31.1522L4.66309 1.65515C4.70491 1.38782 4.84083 1.14423 5.04636 0.968246C5.25189 0.792266 5.51351 0.695475 5.78409 0.695312H17.6388C23.2518 0.695312 27.3329 4.77998 27.2371 9.72868C25.7431 8.95793 24.084 8.56244 22.403 8.57634H12.5199C12.2493 8.57641 11.9875 8.67301 11.7817 8.84878C11.5759 9.02456 11.4396 9.26797 11.3972 9.53528L9.53479 21.3559L7.82642 32.2194Z" fill="#003087"/>
</g>
<defs>
<clipPath id="clip0_2311_25284">
<rect width="32" height="39.4051" fill="white" transform="translate(0 0.697266)"/>
</clipPath>
</defs>
</svg>
